<svg id="svg" version="1.1" xmlns="http://www.w3.org/2000/svg" xmlns:xlink="http://www.w3.org/1999/xlink" width="400" height="253.33333333333334" viewBox="0, 0, 400,253.33333333333334"><g id="svgg"><path id="path0" d="M0.000 21.673 L 0.000 43.346 200.000 43.346 L 400.000 43.346 400.000 21.673 L 400.000 0.000 200.000 0.000 L 0.000 0.000 0.000 21.673 M0.000 126.743 L 0.000 150.063 154.702 150.063 C 274.688 150.063,309.473 149.995,309.708 149.759 C 310.112 149.356,310.152 104.663,309.750 103.912 C 309.491 103.428,307.475 103.422,154.744 103.422 L 0.000 103.422 0.000 126.743 M90.386 210.538 C 90.030 210.894,89.987 213.208,89.987 232.211 L 89.987 253.485 244.994 253.485 L 400.000 253.485 400.000 231.812 L 400.000 210.139 245.392 210.139 C 105.177 210.139,90.747 210.176,90.386 210.538 " stroke="none" fill="#04b4dc" fill-rule="evenodd"></path><path id="path1" d="" stroke="none" fill="#08b4dc" fill-rule="evenodd"></path><path id="path2" d="" stroke="none" fill="#08b4dc" fill-rule="evenodd"></path><path id="path3" d="" stroke="none" fill="#08b4dc" fill-rule="evenodd"></path><path id="path4" d="" stroke="none" fill="#08b4dc" fill-rule="evenodd"></path></g></svg>